<?xml version="1.0" encoding="utf-8"?>
<!-- Generator: Adobe Illustrator 23.0.0, SVG Export Plug-In . SVG Version: 6.00 Build 0)  -->
<svg version="1.1" id="Capa_1" xmlns="http://www.w3.org/2000/svg" xmlns:xlink="http://www.w3.org/1999/xlink" x="0px" y="0px"
	 viewBox="0 0 327.06 183.21" style="enable-background:new 0 0 327.06 183.21;" xml:space="preserve">
<style type="text/css">
	.st0{fill:#F2F2F1;}
	.st1{fill:url(#SVGID_1_);}
	.st2{fill:url(#SVGID_2_);}
	.st3{fill:url(#SVGID_3_);}
	.st4{fill:url(#SVGID_4_);}
	.st5{fill:#9F662D;}
	.st6{fill:#95D4E9;}
	.st7{fill:url(#SVGID_5_);}
	.st8{fill:#77B238;}
	.st9{fill:#FFFFFF;}
	.st10{fill:url(#SVGID_6_);}
	.st11{fill:url(#SVGID_7_);}
	.st12{fill:url(#SVGID_8_);}
	.st13{fill:url(#SVGID_9_);}
	.st14{fill-rule:evenodd;clip-rule:evenodd;fill:#9F662D;}
	.st15{fill:#382F2D;}
	.st16{fill-rule:evenodd;clip-rule:evenodd;fill:#FFFFFF;}
	.st17{fill:#575756;}
	.st18{fill:url(#SVGID_10_);}
	.st19{fill:#76BC21;}
	.st20{fill:#9D9D9C;}
	.st21{fill:url(#SVGID_11_);}
	.st22{fill:url(#SVGID_12_);}
	.st23{fill:url(#SVGID_13_);}
	.st24{fill:url(#SVGID_14_);}
	.st25{fill:url(#SVGID_15_);}
	.st26{fill:url(#SVGID_16_);}
	.st27{fill:url(#SVGID_17_);}
	.st28{fill:url(#SVGID_18_);}
	.st29{fill:url(#SVGID_19_);}
	.st30{fill:url(#SVGID_20_);}
	.st31{fill:url(#SVGID_21_);}
	.st32{fill:url(#SVGID_22_);}
</style>
<g>
	<g>
		<g>
			<g>
				<polygon class="st0" points="53.03,15.33 91.55,91.8 61.22,12.16 				"/>
				<polygon class="st0" points="69.35,9.15 91.55,91.8 78,7.7 				"/>
				<polygon class="st0" points="86.58,6.38 91.55,91.8 95.35,6.7 				"/>
				<polygon class="st0" points="104.01,7.13 91.55,91.8 112.54,9.21 				"/>
				<polygon class="st0" points="120.93,11.37 91.55,91.8 128.86,15.12 				"/>
				<polygon class="st0" points="136.64,18.92 91.55,91.8 143.65,24.19 				"/>
				<polygon class="st0" points="150.5,29.48 91.55,91.8 156.29,36.05 				"/>
				<polygon class="st0" points="161.92,42.6 91.55,91.8 166.26,50.2 				"/>
				<polygon class="st0" points="170.44,57.76 91.55,91.8 173.15,66.07 				"/>
				<polygon class="st0" points="175.71,74.31 91.55,91.8 176.68,83 				"/>
				<polygon class="st0" points="177.52,91.59 91.55,91.8 176.7,100.29 				"/>
				<polygon class="st0" points="175.77,108.87 91.55,91.8 173.21,117.23 				"/>
				<polygon class="st0" points="170.56,125.45 91.55,91.8 166.36,133.13 				"/>
				<polygon class="st0" points="162.09,140.65 91.55,91.8 156.42,147.32 				"/>
				<polygon class="st0" points="150.72,153.83 91.55,91.8 143.81,159.22 				"/>
				<polygon class="st0" points="136.91,164.45 91.55,91.8 129.04,168.35 				"/>
				<polygon class="st0" points="121.22,172.08 91.55,91.8 112.73,174.32 				"/>
				<polygon class="st0" points="104.32,176.41 91.55,91.8 95.55,176.89 				"/>
				<polygon class="st0" points="86.89,177.24 91.55,91.8 78.2,175.95 				"/>
				<polygon class="st0" points="69.65,174.56 91.55,91.8 61.4,171.54 				"/>
				<polygon class="st0" points="53.31,168.46 91.55,91.8 45.85,163.85 				"/>
				<polygon class="st0" points="38.55,159.21 91.55,91.8 32.17,153.19 				"/>
				<polygon class="st0" points="25.97,147.17 91.55,91.8 20.95,140 				"/>
				<polygon class="st0" points="16.09,132.86 91.55,91.8 12.63,124.83 				"/>
				<polygon class="st0" points="9.33,116.85 91.55,91.8 7.57,108.29 				"/>
				<polygon class="st0" points="5.95,99.81 91.55,91.8 5.97,91.07 				"/>
				<polygon class="st0" points="6.1,82.44 91.55,91.8 7.89,73.88 				"/>
				<polygon class="st0" points="9.77,65.46 91.55,91.8 13.26,57.43 				"/>
				<polygon class="st0" points="16.81,49.56 91.55,91.8 21.85,42.4 				"/>
				<polygon class="st0" points="26.93,35.4 91.55,91.8 33.33,29.4 				"/>
				<polygon class="st0" points="39.72,23.57 91.55,91.8 47.19,18.98 				"/>
			</g>
			<g>
				<linearGradient id="SVGID_1_" gradientUnits="userSpaceOnUse" x1="45.9895" y1="47.4289" x2="68.0037" y2="47.4289">
					<stop  offset="0" style="stop-color:#CB9A0E"/>
					<stop  offset="0.3956" style="stop-color:#EACA00"/>
					<stop  offset="0.7198" style="stop-color:#B79700"/>
					<stop  offset="1" style="stop-color:#EACA00"/>
				</linearGradient>
				<polygon class="st1" points="50.7,36.88 57.37,40.7 64.31,37.41 62.71,44.9 68,50.45 60.35,51.25 56.68,57.98 53.55,50.99 
					45.99,49.59 51.71,44.47 				"/>
				<linearGradient id="SVGID_2_" gradientUnits="userSpaceOnUse" x1="76.5713" y1="33.89" x2="106.3067" y2="33.89">
					<stop  offset="0" style="stop-color:#CB9A0E"/>
					<stop  offset="0.3956" style="stop-color:#EACA00"/>
					<stop  offset="0.7198" style="stop-color:#B79700"/>
					<stop  offset="1" style="stop-color:#EACA00"/>
				</linearGradient>
				<polygon class="st2" points="91.44,19.82 96.03,29.08 106.31,30.57 98.87,37.78 100.63,47.96 91.44,43.16 82.25,47.96 
					84.01,37.78 76.57,30.57 86.85,29.08 				"/>
				<linearGradient id="SVGID_3_" gradientUnits="userSpaceOnUse" x1="114.9874" y1="47.4289" x2="137.0008" y2="47.4289">
					<stop  offset="0" style="stop-color:#CB9A0E"/>
					<stop  offset="0.3956" style="stop-color:#EACA00"/>
					<stop  offset="0.7198" style="stop-color:#B79700"/>
					<stop  offset="1" style="stop-color:#EACA00"/>
				</linearGradient>
				<polygon class="st3" points="132.28,36.88 125.63,40.7 118.68,37.41 120.28,44.9 114.99,50.45 122.63,51.25 126.31,57.98 
					129.44,50.99 137,49.59 131.29,44.47 				"/>
			</g>
			<g>
				<linearGradient id="SVGID_4_" gradientUnits="userSpaceOnUse" x1="54.2412" y1="158.7191" x2="86.6419" y2="158.7191">
					<stop  offset="0" style="stop-color:#CB9A0E"/>
					<stop  offset="0.3956" style="stop-color:#EACA00"/>
					<stop  offset="0.7198" style="stop-color:#B79700"/>
					<stop  offset="1" style="stop-color:#EACA00"/>
				</linearGradient>
				<path class="st4" d="M64.56,149.76c0,0-3.48,8.64-10.32,10.83c0,0,7.2,3.69,2.88,10.6c0,0,17.52,3.69,26.41-6.68
					c8.88-10.37-4.08-18.9-4.08-18.9L64.56,149.76z"/>
				<g>
					<path class="st5" d="M109.02,145.67c0,8.94-8.64,20.15-18.07,20.15c-9.42,0-16.06-11.21-16.06-20.15
						c0-8.94,6.64-12.24,16.06-12.24C100.37,133.43,109.02,136.73,109.02,145.67z"/>
					<path class="st6" d="M77.68,156.41c2.75,10.78,9.2,16.28,9.2,16.28s1.17,0.77,2.99,1.09l-0.04-0.02l1.55-4.22l1.67,4.22l0,0
						c0.99-0.18,2.13-0.43,3.14-1.19c5.38-4.07,9.27-16.16,9.27-16.16H77.68z"/>
					<linearGradient id="SVGID_5_" gradientUnits="userSpaceOnUse" x1="77.6793" y1="157.3152" x2="105.4701" y2="157.3152">
						<stop  offset="0" style="stop-color:#CB9A0E"/>
						<stop  offset="0.3956" style="stop-color:#EACA00"/>
						<stop  offset="0.7198" style="stop-color:#B79700"/>
						<stop  offset="1" style="stop-color:#EACA00"/>
					</linearGradient>
					<path class="st7" d="M104.81,158.23c0.45-1,0.66-1.82,0.66-1.82H77.68c0.12,0.63,0.29,1.07,0.49,1.82H104.81z"/>
					<path class="st8" d="M84.69,156.8v-0.04c0-3.54,2.81-6.45,6.68-6.45c3.87,0,6.64,2.87,6.64,6.41v0.03
						c0,3.55-2.81,6.45-6.68,6.45C87.47,163.22,84.69,160.35,84.69,156.8z"/>
					<g>
						<path class="st9" d="M92.1,160.79v1.19h-1.26v-1.21c-1.04-0.13-2.05-0.54-2.85-1.14l0.94-1.37c0.65,0.5,1.26,0.83,1.97,0.97
							v-1.91c-1.74-0.47-2.6-1.15-2.6-2.56c0-1.33,1.02-2.21,2.54-2.37v-0.69h1.26v0.72c0.86,0.12,1.59,0.43,2.24,0.89l-0.81,1.41
							c-0.49-0.33-0.99-0.58-1.5-0.71v1.81c1.84,0.5,2.62,1.25,2.62,2.6C94.65,159.75,93.63,160.63,92.1,160.79z M90.9,153.9
							c-0.58,0.08-0.83,0.37-0.83,0.75c0,0.38,0.17,0.63,0.83,0.87V153.9z M92.03,157.61v1.68c0.57-0.09,0.86-0.35,0.86-0.78
							C92.89,158.1,92.69,157.85,92.03,157.61z"/>
					</g>
					<linearGradient id="SVGID_6_" gradientUnits="userSpaceOnUse" x1="81.8235" y1="170.0828" x2="101.0723" y2="170.0828">
						<stop  offset="0" style="stop-color:#CB9A0E"/>
						<stop  offset="0.3956" style="stop-color:#EACA00"/>
						<stop  offset="0.7198" style="stop-color:#B79700"/>
						<stop  offset="1" style="stop-color:#EACA00"/>
					</linearGradient>
					<path class="st10" d="M81.82,166.38c2.46,4.16,5.03,6.3,5.03,6.3s1.19,0.77,3.03,1.1l-0.05-0.03l1.55-4.22l1.67,4.22
						c0.99-0.19,2.04-0.55,3.13-1.19c1.83-1.08,3.5-3.52,4.89-6.18H81.82z"/>
					<linearGradient id="SVGID_7_" gradientUnits="userSpaceOnUse" x1="81.9512" y1="174.7848" x2="91.3319" y2="174.7848">
						<stop  offset="0" style="stop-color:#CB9A0E"/>
						<stop  offset="0.3956" style="stop-color:#EACA00"/>
						<stop  offset="0.7198" style="stop-color:#B79700"/>
						<stop  offset="1" style="stop-color:#EACA00"/>
					</linearGradient>
					<path class="st11" d="M91.33,176.96c-0.04-2.41-2.12-4.36-4.69-4.36c-2.57,0-4.66,1.95-4.69,4.36H91.33z"/>
					<linearGradient id="SVGID_8_" gradientUnits="userSpaceOnUse" x1="91.5837" y1="174.7848" x2="100.9643" y2="174.7848">
						<stop  offset="0" style="stop-color:#CB9A0E"/>
						<stop  offset="0.3956" style="stop-color:#EACA00"/>
						<stop  offset="0.7198" style="stop-color:#B79700"/>
						<stop  offset="1" style="stop-color:#EACA00"/>
					</linearGradient>
					<path class="st12" d="M100.96,176.96c-0.03-2.41-2.12-4.36-4.69-4.36c-2.57,0-4.65,1.95-4.69,4.36H100.96z"/>
					<path class="st5" d="M69.82,135.81c-1.94,0-3.71,0.66-5.13,1.76c-1.2-0.82-2.64-1.3-4.2-1.3c-1.22,0-2.37,0.3-3.39,0.82
						l-1.06-0.37l0.02-1.02c0.08,0,0.16,0.02,0.24,0.02c2.1,0,3.8-1.69,3.8-3.78c0-2.09-1.7-3.78-3.8-3.78
						c-0.03,0-0.06,0.01-0.09,0.01c-0.06,0-0.11-0.01-0.17-0.01c-5.02,0-9.09,4.05-9.09,9.04c0,4.08,2.72,7.52,6.44,8.65
						c0.94,3.02,3.76,5.21,7.1,5.21c1.25,0,2.42-0.31,3.45-0.85c1.52,1.48,3.59,2.39,5.89,2.39c4.66,0,8.44-3.76,8.44-8.4
						C78.26,139.56,74.48,135.81,69.82,135.81z"/>
					<path class="st5" d="M121.3,150.71c2.67-2.25,3.94-5.91,2.94-9.49c-1.37-4.88-6.46-7.73-11.37-6.36
						c-4.9,1.37-7.77,6.44-6.39,11.31c0.65,2.3,2.12,4.14,4.01,5.31c-0.95,1.53-1.28,3.42-0.76,5.28c0.1,0.35,0.23,0.69,0.38,1.01
						c-0.92,0.08-1.61,0.35-2.52,1.07c-1.06,0.85,2.64,1.66,1.96,2.8c-0.6,1.02-1.02,0.74-2.58-0.46c-0.89-0.69-1.19,0.95-1.14,1.49
						c0,0.03,0,0.06,0,0.09c0.13,2.64,2.39,4.67,5.04,4.54c2.65-0.13,4.69-2.38,4.56-5.02c-0.01-0.25-0.05-0.49-0.1-0.73
						c0.85,0.11,1.74,0.05,2.63-0.19c3.55-0.99,5.63-4.66,4.64-8.2C122.35,152.24,121.89,151.41,121.3,150.71z"/>
				</g>
				<g>
					<linearGradient id="SVGID_9_" gradientUnits="userSpaceOnUse" x1="49.8998" y1="101.2206" x2="133.1011" y2="101.2206">
						<stop  offset="0" style="stop-color:#CB9A0E"/>
						<stop  offset="0.3956" style="stop-color:#EACA00"/>
						<stop  offset="0.7198" style="stop-color:#B79700"/>
						<stop  offset="1" style="stop-color:#EACA00"/>
					</linearGradient>
					<path class="st13" d="M133.1,101.22c0,22.87-18.63,41.4-41.6,41.4c-22.97,0-41.6-18.53-41.6-41.4c0-22.86,18.62-41.4,41.6-41.4
						C114.47,59.82,133.1,78.35,133.1,101.22z"/>
					<g>
						<g>
							<path class="st14" d="M68.39,97.39c-6.24,0-11.3,5.44-11.3,12.14c0,6.7,5.06,12.14,11.3,12.14c6.24,0,11.3-5.44,11.3-12.14
								C79.68,102.82,74.62,97.39,68.39,97.39z M114.61,98.41c-6.52,0-11.81,5.09-11.81,11.37c0,6.28,5.29,11.38,11.81,11.38
								c6.52,0,11.81-5.09,11.81-11.38C126.42,103.5,121.13,98.41,114.61,98.41z"/>
						</g>
					</g>
					<path class="st14" d="M103.82,121.8c0,8.11-5.57,14.69-12.45,14.69c-6.88,0-12.45-6.58-12.45-14.69
						c0-8.12,5.58-14.7,12.45-14.7C98.25,107.1,103.82,113.68,103.82,121.8z"/>
					<path class="st15" d="M87.39,132.18c-0.87,0-1.58-0.7-1.58-1.57l0,0c0-0.87,0.71-1.57,1.58-1.57l0,0h7.96
						c0.87,0,1.58,0.7,1.58,1.57l0,0c0,0.87-0.7,1.57-1.58,1.57l0,0H87.39L87.39,132.18z"/>
					<path class="st9" d="M77.09,110.79c0,3.31-2.87,5.99-6.41,5.99c-3.54,0-6.41-2.68-6.41-5.99c0-3.31,2.87-6,6.41-6
						C74.22,104.8,77.09,107.48,77.09,110.79z"/>
					<g>
						<path class="st15" d="M75.06,111.06c0,1.92-1.56,3.47-3.49,3.47l0,0c-1.92,0-3.49-1.55-3.49-3.47l0,0
							c0-1.91,1.56-3.47,3.49-3.47l0,0C73.5,107.59,75.06,109.15,75.06,111.06L75.06,111.06z"/>
						<g>
							<path class="st15" d="M75.44,108.03l-7.35-3.04c-0.8-0.33-1.18-1.26-0.85-2.05l0,0c0.33-0.8,1.26-1.18,2.07-0.85l0,0
								l7.35,3.04c0.8,0.33,1.18,1.25,0.85,2.05l0,0c-0.25,0.61-0.84,0.97-1.46,0.97l0,0C75.84,108.15,75.63,108.11,75.44,108.03
								L75.44,108.03z"/>
						</g>
					</g>
					<path class="st9" d="M106.92,110.79c0,3.31,2.87,5.99,6.41,5.99c3.54,0,6.41-2.68,6.41-5.99c0-3.31-2.87-6-6.41-6
						C109.79,104.8,106.92,107.48,106.92,110.79z"/>
					<g>
						<path class="st15" d="M108.95,111.06c0,1.92,1.56,3.47,3.49,3.47l0,0c1.93,0,3.49-1.55,3.49-3.47l0,0
							c0-1.91-1.56-3.47-3.49-3.47l0,0C110.51,107.59,108.95,109.15,108.95,111.06L108.95,111.06z"/>
						<g>
							<g>
								<path class="st15" d="M106.51,107.17c-0.33-0.8,0.05-1.72,0.85-2.05l0,0l7.36-3.04c0.8-0.33,1.73,0.05,2.07,0.85l0,0
									c0.33,0.8-0.05,1.72-0.85,2.06l0,0l-7.35,3.04c-0.2,0.09-0.4,0.12-0.61,0.12l0,0C107.35,108.15,106.76,107.78,106.51,107.17
									L106.51,107.17z"/>
							</g>
						</g>
					</g>
					<path class="st16" d="M119.05,83.88c0.6,1.04,0.95,2.2,0.95,3.44c0,4.19-3.86,7.59-8.61,7.59c-2.52,0-4.79-0.96-6.36-2.48
						c-1.05,5.97-6.27,10.51-12.56,10.51c-6.79,0-12.33-5.28-12.73-11.94c-1.47,2.33-4.29,3.92-7.53,3.92
						c-4.75,0-8.61-3.4-8.61-7.59c0-1.24,0.35-2.41,0.95-3.44c-6.58,1.97-11.47,13.8-11.47,22.31c0,10.03,6.78,18.16,15.15,18.16
						c3.09,0,5.96-1.12,8.35-3.02c0.74,1.15,1.61,2.86,2.6,3.8c-2.06,1.32-3.29,2.98-3.29,4.8c0,4.27,6.8,7.73,15.18,7.73
						c8.38,0,15.18-3.46,15.18-7.73c0-1.69-1.08-3.25-2.89-4.52c1.23-1.12,2.3-3.08,3.16-4.51c2.5,2.16,5.55,3.46,8.87,3.46
						c8.36,0,15.15-8.14,15.15-18.16C130.52,97.68,125.63,85.85,119.05,83.88z M83.98,119.88c0-3.25,2.73-9.97,6.1-9.97h3.05
						c3.37,0,6.1,6.72,6.1,9.97v0.38c0,3.25-2.73,2.62-6.1,2.62h-3.05c-3.37,0-6.1,0.63-6.1-2.62V119.88z M68.53,120.85
						c-5.97,0-10.81-4.82-10.81-10.76c0-5.94,4.84-10.76,10.81-10.76c5.97,0,10.81,4.82,10.81,10.76
						C79.34,116.03,74.5,120.85,68.53,120.85z M91.19,134.68c-4.85,0-8.79-1.84-8.79-4.11c0-2.27,3.94-4.11,8.79-4.11
						c4.86,0,8.8,1.84,8.8,4.11C99.98,132.84,96.04,134.68,91.19,134.68z M115.08,120.34c-5.83,0-10.56-4.71-10.56-10.51
						c0-5.8,4.73-10.5,10.56-10.5c5.83,0,10.55,4.7,10.55,10.5C125.64,115.64,120.91,120.34,115.08,120.34z"/>
					<path class="st9" d="M101.63,72.02l-6.58,6.64h3.31c0,0,0.7,10.75-11.62,9.02c0.64,1.69,16.27,7.86,18.24-9.02h3.22
						L101.63,72.02z"/>
					<path class="st9" d="M85.18,85.37l6.58-6.63h-3.32c0,0-0.69-10.75,11.62-9.02c-0.64-1.69-16.27-7.87-18.24,9.02H78.6
						L85.18,85.37z"/>
				</g>
			</g>
		</g>
		<path class="st17" d="M173.56,153.47l10.19-23c0.71-1.59,2.01-2.55,3.76-2.55h0.38c1.75,0,3.01,0.96,3.71,2.55l10.19,23
			c0.21,0.46,0.33,0.88,0.33,1.3c0,1.71-1.33,3.09-3.05,3.09c-1.5,0-2.5-0.88-3.09-2.21l-1.96-4.59h-12.86l-2.05,4.8
			c-0.54,1.25-1.63,2-2.96,2c-1.67,0-2.96-1.34-2.96-3.01C173.19,154.39,173.35,153.93,173.56,153.47z M191.64,145.37l-4.05-9.64
			l-4.05,9.64H191.64z"/>
		<path class="st17" d="M207.17,131.59c0-1.8,1.42-3.21,3.22-3.21h8.72c6.97,0,11.19,4.13,11.19,10.1v0.08
			c0,6.76-5.26,10.27-11.81,10.27h-4.88v5.8c0,1.79-1.42,3.21-3.21,3.21c-1.8,0-3.22-1.42-3.22-3.21V131.59z M218.69,143.11
			c3.21,0,5.09-1.92,5.09-4.43v-0.08c0-2.88-2-4.42-5.22-4.42h-4.96v8.93H218.69z"/>
		<path class="st17" d="M278.01,146.33l-9.43-12.82c-0.46-0.63-0.79-1.38-0.79-2.3c0-1.71,1.42-3.09,3.22-3.09
			c1.46,0,2.38,0.79,3.17,1.96l7.1,10.23l7.22-10.31c0.79-1.17,1.75-1.92,3.09-1.92c1.96,0,3.13,1.38,3.13,3.13
			c0,0.88-0.42,1.67-0.84,2.26l-9.43,12.73v8.43c0,1.79-1.42,3.21-3.22,3.21c-1.79,0-3.21-1.42-3.21-3.21V146.33z"/>
		<linearGradient id="SVGID_10_" gradientUnits="userSpaceOnUse" x1="234.7152" y1="143.1094" x2="265.7711" y2="143.1094">
			<stop  offset="0" style="stop-color:#CB9A0E"/>
			<stop  offset="0.3956" style="stop-color:#EACA00"/>
			<stop  offset="0.7198" style="stop-color:#B79700"/>
			<stop  offset="1" style="stop-color:#EACA00"/>
		</linearGradient>
		<path class="st18" d="M234.72,143.19v-0.08c0-8.31,6.55-15.11,15.57-15.11c9.02,0,15.49,6.72,15.49,15.03v0.08
			c0,8.31-6.55,15.11-15.57,15.11C241.18,158.22,234.72,151.5,234.72,143.19z"/>
		<g>
			<g>
				<path class="st9" d="M257.51,137.02l-5.71,5.78h2.87c0,0,0.6,9.37-10.07,7.86c0.55,1.47,14.1,6.85,15.81-7.86h2.8L257.51,137.02
					z"/>
				<path class="st9" d="M243.25,148.64l5.7-5.78h-2.87c0,0-0.61-9.37,10.07-7.86c-0.56-1.47-14.11-6.85-15.82,7.86h-2.79
					L243.25,148.64z"/>
			</g>
		</g>
		<path class="st19" d="M296,143.19v-0.08c0-8.31,6.55-15.11,15.57-15.11c9.02,0,15.49,6.72,15.49,15.03v0.08
			c0,8.31-6.55,15.11-15.57,15.11C302.47,158.22,296,151.5,296,143.19z"/>
		<g>
			<path class="st9" d="M313.26,152.55v2.79h-2.93v-2.84c-2.42-0.31-4.79-1.27-6.64-2.68l2.2-3.21c1.52,1.15,2.93,1.94,4.59,2.28
				v-4.48c-4.05-1.1-6.05-2.68-6.05-6c0-3.12,2.36-5.18,5.91-5.54v-1.63h2.93v1.69c2,0.28,3.72,1.01,5.23,2.08l-1.89,3.3
				c-1.12-0.76-2.31-1.35-3.49-1.66v4.25c4.28,1.15,6.11,2.93,6.11,6.08C319.23,150.1,316.84,152.15,313.26,152.55z M310.47,136.39
				c-1.35,0.19-1.94,0.87-1.94,1.77c0,0.87,0.4,1.46,1.94,2.03V136.39z M313.12,145.09v3.94c1.32-0.2,2-0.82,2-1.83
				C315.12,146.24,314.64,145.65,313.12,145.09z"/>
		</g>
		<path class="st20" d="M153.34,96.52c0-1.4,1.11-2.55,2.54-2.55h0.54c1.11,0,1.85,0.57,2.34,1.36l8.71,13.64l8.75-13.68
			c0.53-0.86,1.27-1.31,2.3-1.31h0.53c1.44,0,2.55,1.15,2.55,2.55v24.07c0,1.4-1.11,2.51-2.55,2.51c-1.36,0-2.51-1.15-2.51-2.51
			v-17.25l-7.02,10.56c-0.53,0.82-1.19,1.32-2.14,1.32c-0.9,0-1.56-0.49-2.1-1.32l-6.98-10.48v17.21c0,1.4-1.11,2.47-2.5,2.47
			c-1.4,0-2.46-1.07-2.46-2.47V96.52z"/>
		<path class="st20" d="M188.54,110.69V96.44c0-1.4,1.11-2.5,2.55-2.5c1.4,0,2.5,1.11,2.5,2.5v14.05c0,5.34,2.75,8.17,7.27,8.17
			c4.48,0,7.23-2.67,7.23-7.97V96.44c0-1.4,1.11-2.5,2.55-2.5c1.4,0,2.51,1.11,2.51,2.5v14.01c0,8.59-4.85,12.9-12.37,12.9
			C193.31,123.35,188.54,119.04,188.54,110.69z"/>
		<path class="st20" d="M220.09,96.44c0-1.4,1.11-2.5,2.55-2.5c1.4,0,2.51,1.11,2.51,2.5v21.85h13.02c1.27,0,2.3,1.03,2.3,2.3
			c0,1.27-1.03,2.3-2.3,2.3h-15.53c-1.44,0-2.55-1.11-2.55-2.55V96.44z"/>
		<path class="st20" d="M247.66,98.82h-6.98c-1.32,0-2.34-1.07-2.34-2.34c0-1.27,1.02-2.34,2.34-2.34h19.1c1.27,0,2.3,1.07,2.3,2.34
			c0,1.27-1.03,2.34-2.3,2.34h-7.03v21.77c0,1.4-1.15,2.51-2.54,2.51c-1.4,0-2.55-1.11-2.55-2.51V98.82z"/>
		<path class="st20" d="M267.5,96.44c0-1.4,1.11-2.5,2.55-2.5c1.4,0,2.51,1.11,2.51,2.5v24.15c0,1.4-1.11,2.51-2.51,2.51
			c-1.44,0-2.55-1.11-2.55-2.51V96.44z"/>
		<linearGradient id="SVGID_11_" gradientUnits="userSpaceOnUse" x1="152.25" y1="172.1974" x2="267.9451" y2="172.1974">
			<stop  offset="0" style="stop-color:#CB9A0E"/>
			<stop  offset="0.3956" style="stop-color:#EACA00"/>
			<stop  offset="0.7198" style="stop-color:#B79700"/>
			<stop  offset="1" style="stop-color:#EACA00"/>
		</linearGradient>
		<path class="st21" d="M153.71,172.22v-0.03c0-2.07,1.59-3.78,3.81-3.78c1.1,0,1.87,0.3,2.48,0.82c0.14,0.11,0.33,0.35,0.33,0.71
			c0,0.51-0.42,0.92-0.94,0.92c-0.27,0-0.47-0.11-0.59-0.2c-0.37-0.28-0.75-0.46-1.29-0.46c-1.03,0-1.76,0.91-1.76,1.98v0.03
			c0,1.11,0.72,2,1.84,2c0.54,0,0.97-0.19,1.36-0.5c0.11-0.08,0.31-0.19,0.56-0.19c0.49,0,0.87,0.4,0.87,0.88
			c0,0.27-0.12,0.49-0.3,0.65c-0.61,0.56-1.38,0.94-2.57,0.94C155.31,175.98,153.71,174.3,153.71,172.22z"/>
		<linearGradient id="SVGID_12_" gradientUnits="userSpaceOnUse" x1="152.2532" y1="172.2118" x2="267.9519" y2="172.2118">
			<stop  offset="0" style="stop-color:#CB9A0E"/>
			<stop  offset="0.3956" style="stop-color:#EACA00"/>
			<stop  offset="0.7198" style="stop-color:#B79700"/>
			<stop  offset="1" style="stop-color:#EACA00"/>
		</linearGradient>
		<path class="st22" d="M161.91,173.73v-0.03c0-1.58,1.21-2.32,2.92-2.32c0.73,0,1.26,0.12,1.78,0.3v-0.12
			c0-0.85-0.53-1.33-1.56-1.33c-0.57,0-1.03,0.08-1.42,0.2c-0.12,0.04-0.2,0.05-0.3,0.05c-0.48,0-0.85-0.36-0.85-0.84
			c0-0.37,0.23-0.68,0.56-0.8c0.65-0.24,1.36-0.38,2.32-0.38c1.13,0,1.94,0.3,2.45,0.81c0.54,0.54,0.79,1.34,0.79,2.32v3.31
			c0,0.56-0.45,0.99-1,0.99c-0.6,0-0.99-0.42-0.99-0.86v-0.01c-0.5,0.55-1.19,0.92-2.2,0.92
			C163.04,175.95,161.91,175.17,161.91,173.73z M166.64,173.25v-0.36c-0.35-0.16-0.81-0.27-1.32-0.27c-0.88,0-1.42,0.35-1.42,1v0.03
			c0,0.55,0.46,0.88,1.12,0.88C165.99,174.53,166.64,174,166.64,173.25z"/>
		<linearGradient id="SVGID_13_" gradientUnits="userSpaceOnUse" x1="152.2529" y1="172.1976" x2="267.9609" y2="172.1976">
			<stop  offset="0" style="stop-color:#CB9A0E"/>
			<stop  offset="0.3956" style="stop-color:#EACA00"/>
			<stop  offset="0.7198" style="stop-color:#B79700"/>
			<stop  offset="1" style="stop-color:#EACA00"/>
		</linearGradient>
		<path class="st23" d="M170.72,175.13c-0.22-0.14-0.39-0.38-0.39-0.7c0-0.46,0.35-0.81,0.81-0.81c0.15,0,0.3,0.04,0.41,0.11
			c0.69,0.43,1.38,0.65,1.97,0.65c0.6,0,0.87-0.22,0.87-0.54v-0.03c0-0.45-0.7-0.6-1.5-0.84c-1.02-0.3-2.17-0.77-2.17-2.18v-0.03
			c0-1.48,1.19-2.3,2.66-2.3c0.76,0,1.55,0.2,2.25,0.56c0.3,0.15,0.49,0.42,0.49,0.77c0,0.46-0.37,0.82-0.83,0.82
			c-0.15,0-0.25-0.03-0.38-0.1c-0.58-0.28-1.14-0.46-1.57-0.46c-0.5,0-0.76,0.22-0.76,0.5v0.03c0,0.41,0.69,0.6,1.48,0.87
			c1.01,0.34,2.19,0.83,2.19,2.15v0.03c0,1.61-1.21,2.34-2.78,2.34C172.57,175.95,171.61,175.69,170.72,175.13z"/>
		<linearGradient id="SVGID_14_" gradientUnits="userSpaceOnUse" x1="152.2561" y1="172.2118" x2="267.957" y2="172.2118">
			<stop  offset="0" style="stop-color:#CB9A0E"/>
			<stop  offset="0.3956" style="stop-color:#EACA00"/>
			<stop  offset="0.7198" style="stop-color:#B79700"/>
			<stop  offset="1" style="stop-color:#EACA00"/>
		</linearGradient>
		<path class="st24" d="M177.83,173.73v-0.03c0-1.58,1.21-2.32,2.93-2.32c0.73,0,1.26,0.12,1.78,0.3v-0.12
			c0-0.85-0.53-1.33-1.56-1.33c-0.57,0-1.03,0.08-1.42,0.2c-0.12,0.04-0.2,0.05-0.3,0.05c-0.47,0-0.85-0.36-0.85-0.84
			c0-0.37,0.23-0.68,0.56-0.8c0.65-0.24,1.35-0.38,2.32-0.38c1.13,0,1.94,0.3,2.45,0.81c0.54,0.54,0.79,1.34,0.79,2.32v3.31
			c0,0.56-0.45,0.99-1,0.99c-0.6,0-0.99-0.42-0.99-0.86v-0.01c-0.5,0.55-1.19,0.92-2.19,0.92
			C178.95,175.95,177.83,175.17,177.83,173.73z M182.56,173.25v-0.36c-0.35-0.16-0.81-0.27-1.31-0.27c-0.88,0-1.42,0.35-1.42,1v0.03
			c0,0.55,0.46,0.88,1.12,0.88C181.91,174.53,182.56,174,182.56,173.25z"/>
		<linearGradient id="SVGID_15_" gradientUnits="userSpaceOnUse" x1="152.2543" y1="170.8973" x2="267.9669" y2="170.8973">
			<stop  offset="0" style="stop-color:#CB9A0E"/>
			<stop  offset="0.3956" style="stop-color:#EACA00"/>
			<stop  offset="0.7198" style="stop-color:#B79700"/>
			<stop  offset="1" style="stop-color:#EACA00"/>
		</linearGradient>
		<path class="st25" d="M197.46,174.87c0,0.57-0.46,1.03-1.03,1.03c-0.57,0-1.03-0.46-1.03-1.03v-0.09
			c-0.5,0.67-1.19,1.18-2.26,1.18c-1.69,0-3.31-1.33-3.31-3.75v-0.03c0-2.43,1.59-3.76,3.31-3.76c1.1,0,1.78,0.5,2.26,1.09v-2.63
			c0-0.57,0.46-1.03,1.03-1.03c0.57,0,1.03,0.46,1.03,1.03V174.87z M191.88,172.17v0.03c0,1.2,0.81,2,1.77,2c0.96,0,1.76-0.8,1.76-2
			v-0.03c0-1.21-0.8-2.01-1.76-2.01C192.7,170.16,191.88,170.95,191.88,172.17z"/>
		<linearGradient id="SVGID_16_" gradientUnits="userSpaceOnUse" x1="152.2372" y1="172.1974" x2="267.9911" y2="172.1974">
			<stop  offset="0" style="stop-color:#CB9A0E"/>
			<stop  offset="0.3956" style="stop-color:#EACA00"/>
			<stop  offset="0.7198" style="stop-color:#B79700"/>
			<stop  offset="1" style="stop-color:#EACA00"/>
		</linearGradient>
		<path class="st26" d="M203.28,175.98c-2.18,0-3.79-1.53-3.79-3.76v-0.03c0-2.07,1.48-3.78,3.59-3.78c2.42,0,3.5,1.99,3.5,3.5
			c0,0.6-0.42,0.99-0.96,0.99h-4.08c0.2,0.93,0.86,1.42,1.78,1.42c0.57,0,1.05-0.18,1.47-0.49c0.15-0.11,0.28-0.16,0.5-0.16
			c0.46,0,0.8,0.35,0.8,0.81c0,0.27-0.12,0.48-0.27,0.61C205.17,175.64,204.34,175.98,203.28,175.98z M204.61,171.62
			c-0.12-0.92-0.66-1.55-1.53-1.55c-0.85,0-1.41,0.61-1.57,1.55H204.61z"/>
		<linearGradient id="SVGID_17_" gradientUnits="userSpaceOnUse" x1="152.2513" y1="172.1974" x2="267.9727" y2="172.1974">
			<stop  offset="0" style="stop-color:#CB9A0E"/>
			<stop  offset="0.3956" style="stop-color:#EACA00"/>
			<stop  offset="0.7198" style="stop-color:#B79700"/>
			<stop  offset="1" style="stop-color:#EACA00"/>
		</linearGradient>
		<path class="st27" d="M215.46,175.98c-2.18,0-3.79-1.53-3.79-3.76v-0.03c0-2.07,1.48-3.78,3.59-3.78c2.42,0,3.5,1.99,3.5,3.5
			c0,0.6-0.42,0.99-0.96,0.99h-4.08c0.2,0.93,0.86,1.42,1.78,1.42c0.57,0,1.04-0.18,1.46-0.49c0.15-0.11,0.29-0.16,0.5-0.16
			c0.46,0,0.8,0.35,0.8,0.81c0,0.27-0.12,0.48-0.27,0.61C217.34,175.64,216.52,175.98,215.46,175.98z M216.79,171.62
			c-0.12-0.92-0.66-1.55-1.53-1.55c-0.85,0-1.41,0.61-1.58,1.55H216.79z"/>
		<linearGradient id="SVGID_18_" gradientUnits="userSpaceOnUse" x1="152.2543" y1="172.1571" x2="267.9713" y2="172.1571">
			<stop  offset="0" style="stop-color:#CB9A0E"/>
			<stop  offset="0.3956" style="stop-color:#EACA00"/>
			<stop  offset="0.7198" style="stop-color:#B79700"/>
			<stop  offset="1" style="stop-color:#EACA00"/>
		</linearGradient>
		<path class="st28" d="M220.87,169.5c0-0.57,0.46-1.03,1.03-1.03s1.03,0.46,1.03,1.03v0.08c0.48-0.61,1.1-1.17,2.14-1.17
			c0.95,0,1.67,0.42,2.05,1.15c0.64-0.75,1.4-1.15,2.39-1.15c1.53,0,2.46,0.92,2.46,2.67v3.78c0,0.57-0.46,1.03-1.03,1.03
			c-0.57,0-1.03-0.46-1.03-1.03v-3.11c0-0.97-0.43-1.48-1.21-1.48c-0.77,0-1.25,0.5-1.25,1.48v3.11c0,0.57-0.46,1.03-1.03,1.03
			c-0.57,0-1.03-0.46-1.03-1.03v-3.11c0-0.97-0.43-1.48-1.2-1.48c-0.77,0-1.25,0.5-1.25,1.48v3.11c0,0.57-0.46,1.03-1.03,1.03
			s-1.03-0.46-1.03-1.03V169.5z"/>
		<linearGradient id="SVGID_19_" gradientUnits="userSpaceOnUse" x1="152.2604" y1="173.2406" x2="267.9686" y2="173.2406">
			<stop  offset="0" style="stop-color:#CB9A0E"/>
			<stop  offset="0.3956" style="stop-color:#EACA00"/>
			<stop  offset="0.7198" style="stop-color:#B79700"/>
			<stop  offset="1" style="stop-color:#EACA00"/>
		</linearGradient>
		<path class="st29" d="M234.29,169.5c0-0.57,0.46-1.03,1.03-1.03c0.57,0,1.03,0.46,1.03,1.03v0.09c0.5-0.68,1.19-1.18,2.26-1.18
			c1.69,0,3.31,1.33,3.31,3.76v0.03c0,2.43-1.59,3.75-3.31,3.75c-1.1,0-1.77-0.5-2.26-1.08v2.17c0,0.57-0.46,1.03-1.03,1.03
			c-0.57,0-1.03-0.46-1.03-1.03V169.5z M239.86,172.2v-0.03c0-1.21-0.81-2.01-1.77-2.01c-0.96,0-1.76,0.8-1.76,2.01v0.03
			c0,1.2,0.8,2,1.76,2C239.04,174.2,239.86,173.42,239.86,172.2z"/>
		<linearGradient id="SVGID_20_" gradientUnits="userSpaceOnUse" x1="152.2523" y1="172.1974" x2="267.9723" y2="172.1974">
			<stop  offset="0" style="stop-color:#CB9A0E"/>
			<stop  offset="0.3956" style="stop-color:#EACA00"/>
			<stop  offset="0.7198" style="stop-color:#B79700"/>
			<stop  offset="1" style="stop-color:#EACA00"/>
		</linearGradient>
		<path class="st30" d="M247.42,175.98c-2.18,0-3.8-1.53-3.8-3.76v-0.03c0-2.07,1.48-3.78,3.59-3.78c2.43,0,3.5,1.99,3.5,3.5
			c0,0.6-0.42,0.99-0.96,0.99h-4.08c0.2,0.93,0.85,1.42,1.78,1.42c0.57,0,1.05-0.18,1.46-0.49c0.15-0.11,0.28-0.16,0.5-0.16
			c0.46,0,0.8,0.35,0.8,0.81c0,0.27-0.12,0.48-0.27,0.61C249.31,175.64,248.48,175.98,247.42,175.98z M248.75,171.62
			c-0.12-0.92-0.67-1.55-1.53-1.55c-0.85,0-1.41,0.61-1.57,1.55H248.75z"/>
		<linearGradient id="SVGID_21_" gradientUnits="userSpaceOnUse" x1="152.2749" y1="170.7005" x2="267.9699" y2="170.7005">
			<stop  offset="0" style="stop-color:#CB9A0E"/>
			<stop  offset="0.3956" style="stop-color:#EACA00"/>
			<stop  offset="0.7198" style="stop-color:#B79700"/>
			<stop  offset="1" style="stop-color:#EACA00"/>
		</linearGradient>
		<path class="st31" d="M252.83,169.5c0-0.57,0.46-1.03,1.03-1.03c0.57,0,1.03,0.46,1.03,1.03v0.08c0.47-0.61,1.08-1.17,2.13-1.17
			c1.56,0,2.47,1.03,2.47,2.7v3.76c0,0.57-0.46,1.03-1.03,1.03c-0.57,0-1.03-0.46-1.03-1.03v-3.11c0-0.97-0.46-1.48-1.25-1.48
			c-0.79,0-1.29,0.5-1.29,1.48v3.11c0,0.57-0.46,1.03-1.03,1.03c-0.57,0-1.03-0.46-1.03-1.03V169.5z M254.13,167.93
			c-0.32,0-0.61-0.27-0.61-0.56c0-0.09,0.03-0.26,0.07-0.37c0.3-0.79,0.69-1.33,1.52-1.33c0.84,0,1.55,0.53,2.03,0.53
			c0.33,0,0.47-0.12,0.64-0.39c0.11-0.18,0.29-0.31,0.53-0.31c0.33,0,0.61,0.27,0.61,0.56c0,0.1-0.03,0.26-0.07,0.37
			c-0.3,0.79-0.69,1.33-1.52,1.33c-0.84,0-1.55-0.53-2.03-0.53c-0.33,0-0.47,0.12-0.64,0.39
			C254.55,167.79,254.38,167.93,254.13,167.93z"/>
		<linearGradient id="SVGID_22_" gradientUnits="userSpaceOnUse" x1="152.2362" y1="172.1974" x2="267.973" y2="172.1974">
			<stop  offset="0" style="stop-color:#CB9A0E"/>
			<stop  offset="0.3956" style="stop-color:#EACA00"/>
			<stop  offset="0.7198" style="stop-color:#B79700"/>
			<stop  offset="1" style="stop-color:#EACA00"/>
		</linearGradient>
		<path class="st32" d="M261.47,172.22v-0.03c0-2.09,1.68-3.78,3.95-3.78c2.25,0,3.92,1.67,3.92,3.76v0.03
			c0,2.09-1.68,3.78-3.95,3.78C263.14,175.98,261.47,174.31,261.47,172.22z M267.3,172.22v-0.03c0-1.07-0.77-2.01-1.91-2.01
			c-1.18,0-1.88,0.91-1.88,1.98v0.03c0,1.07,0.77,2,1.91,2C266.59,174.2,267.3,173.3,267.3,172.22z"/>
		<g>
			<line class="st6" x1="276.83" y1="168.52" x2="273.61" y2="175.62"/>
			<path class="st6" d="M273.47,175.92c-0.16-0.08-0.23-0.27-0.16-0.43l0,0l3.23-7.1c0.07-0.16,0.26-0.23,0.43-0.16l0,0
				c0.16,0.07,0.23,0.27,0.16,0.43l0,0l-3.23,7.1c-0.05,0.12-0.17,0.19-0.3,0.19l0,0C273.56,175.95,273.52,175.93,273.47,175.92
				L273.47,175.92z"/>
		</g>
		<g>
			<line class="st6" x1="278.77" y1="168.52" x2="275.55" y2="175.62"/>
			<path class="st6" d="M275.41,175.92c-0.16-0.08-0.24-0.27-0.16-0.43l0,0l3.23-7.1c0.08-0.16,0.26-0.23,0.43-0.16l0,0
				c0.16,0.07,0.23,0.27,0.16,0.43l0,0l-3.23,7.1c-0.05,0.12-0.17,0.19-0.3,0.19l0,0C275.5,175.95,275.45,175.93,275.41,175.92
				L275.41,175.92z"/>
		</g>
		<g>
			<line class="st6" x1="280.71" y1="168.52" x2="277.48" y2="175.62"/>
			<path class="st6" d="M277.35,175.92c-0.16-0.08-0.24-0.27-0.16-0.43l0,0l3.23-7.1c0.07-0.16,0.26-0.23,0.43-0.16l0,0
				c0.16,0.07,0.24,0.27,0.16,0.43l0,0l-3.23,7.1c-0.05,0.12-0.17,0.19-0.29,0.19l0,0C277.43,175.95,277.39,175.93,277.35,175.92
				L277.35,175.92z"/>
		</g>
		<g>
			<line class="st6" x1="282.64" y1="168.52" x2="279.42" y2="175.62"/>
			<path class="st6" d="M279.28,175.92c-0.17-0.08-0.24-0.27-0.16-0.43l0,0l3.23-7.1c0.07-0.16,0.26-0.23,0.43-0.16l0,0
				c0.16,0.07,0.23,0.27,0.16,0.43l0,0l-3.23,7.1c-0.06,0.12-0.17,0.19-0.3,0.19l0,0C279.37,175.95,279.32,175.93,279.28,175.92
				L279.28,175.92z"/>
		</g>
		<g>
			<line class="st6" x1="284.58" y1="168.52" x2="281.35" y2="175.62"/>
			<path class="st6" d="M281.22,175.92c-0.16-0.08-0.23-0.27-0.16-0.43l0,0l3.23-7.1c0.07-0.16,0.27-0.23,0.43-0.16l0,0
				c0.16,0.07,0.24,0.27,0.16,0.43l0,0l-3.23,7.1c-0.06,0.12-0.17,0.19-0.29,0.19l0,0C281.3,175.95,281.26,175.93,281.22,175.92
				L281.22,175.92z"/>
		</g>
		<g>
			<line class="st6" x1="286.51" y1="168.52" x2="283.29" y2="175.62"/>
			<path class="st6" d="M283.15,175.92c-0.16-0.08-0.23-0.27-0.16-0.43l0,0l3.23-7.1c0.07-0.16,0.26-0.23,0.42-0.16l0,0
				c0.16,0.07,0.23,0.27,0.16,0.43l0,0l-3.23,7.1c-0.05,0.12-0.17,0.19-0.3,0.19l0,0C283.24,175.95,283.2,175.93,283.15,175.92
				L283.15,175.92z"/>
		</g>
		<g>
			<line class="st6" x1="288.45" y1="168.52" x2="285.23" y2="175.62"/>
			<path class="st6" d="M285.09,175.92c-0.16-0.08-0.23-0.27-0.16-0.43l0,0l3.23-7.1c0.07-0.16,0.26-0.23,0.43-0.16l0,0
				c0.16,0.07,0.23,0.27,0.16,0.43l0,0l-3.23,7.1c-0.05,0.12-0.17,0.19-0.3,0.19l0,0C285.18,175.95,285.13,175.93,285.09,175.92
				L285.09,175.92z"/>
		</g>
		<g>
			<line class="st6" x1="290.39" y1="168.52" x2="287.16" y2="175.62"/>
			<path class="st6" d="M287.03,175.92c-0.16-0.08-0.23-0.27-0.16-0.43l0,0l3.23-7.1c0.07-0.16,0.26-0.23,0.42-0.16l0,0
				c0.16,0.07,0.24,0.27,0.16,0.43l0,0l-3.23,7.1c-0.05,0.12-0.17,0.19-0.29,0.19l0,0C287.11,175.95,287.07,175.93,287.03,175.92
				L287.03,175.92z"/>
		</g>
		<g>
			<line class="st6" x1="292.32" y1="168.52" x2="289.1" y2="175.62"/>
			<path class="st6" d="M288.96,175.92c-0.16-0.08-0.24-0.27-0.16-0.43l0,0l3.23-7.1c0.07-0.16,0.26-0.23,0.43-0.16l0,0
				c0.16,0.07,0.23,0.27,0.16,0.43l0,0l-3.23,7.1c-0.06,0.12-0.17,0.19-0.3,0.19l0,0C289.05,175.95,289.01,175.93,288.96,175.92
				L288.96,175.92z"/>
		</g>
		<g>
			<line class="st6" x1="294.26" y1="168.52" x2="291.03" y2="175.62"/>
			<path class="st6" d="M290.9,175.92c-0.16-0.08-0.23-0.27-0.16-0.43l0,0l3.23-7.1c0.07-0.16,0.27-0.23,0.43-0.16l0,0
				c0.16,0.07,0.24,0.27,0.16,0.43l0,0l-3.23,7.1c-0.06,0.12-0.17,0.19-0.3,0.19l0,0C290.99,175.95,290.94,175.93,290.9,175.92
				L290.9,175.92z"/>
		</g>
		<g>
			<line class="st6" x1="296.2" y1="168.52" x2="292.97" y2="175.62"/>
			<path class="st6" d="M292.83,175.92c-0.16-0.08-0.23-0.27-0.16-0.43l0,0l3.23-7.1c0.07-0.16,0.26-0.23,0.42-0.16l0,0
				c0.16,0.07,0.24,0.27,0.16,0.43l0,0l-3.23,7.1c-0.05,0.12-0.17,0.19-0.29,0.19l0,0C292.92,175.95,292.88,175.93,292.83,175.92
				L292.83,175.92z"/>
		</g>
		<g>
			<line class="st6" x1="298.13" y1="168.52" x2="294.91" y2="175.62"/>
			<path class="st6" d="M294.77,175.92c-0.16-0.08-0.23-0.27-0.16-0.43l0,0l3.23-7.1c0.07-0.16,0.26-0.23,0.43-0.16l0,0
				c0.16,0.07,0.23,0.27,0.16,0.43l0,0l-3.23,7.1c-0.05,0.12-0.17,0.19-0.3,0.19l0,0C294.86,175.95,294.81,175.93,294.77,175.92
				L294.77,175.92z"/>
		</g>
		<g>
			<line class="st6" x1="300.07" y1="168.52" x2="296.84" y2="175.62"/>
			<path class="st6" d="M296.71,175.92c-0.16-0.08-0.23-0.27-0.16-0.43l0,0l3.23-7.1c0.07-0.16,0.26-0.23,0.43-0.16l0,0
				c0.16,0.07,0.24,0.27,0.16,0.43l0,0l-3.23,7.1c-0.05,0.12-0.17,0.19-0.29,0.19l0,0C296.79,175.95,296.75,175.93,296.71,175.92
				L296.71,175.92z"/>
		</g>
		<g>
			<line class="st6" x1="302.01" y1="168.52" x2="298.78" y2="175.62"/>
			<path class="st6" d="M298.64,175.92c-0.16-0.08-0.24-0.27-0.16-0.43l0,0l3.23-7.1c0.07-0.16,0.26-0.23,0.43-0.16l0,0
				c0.16,0.07,0.23,0.27,0.16,0.43l0,0l-3.23,7.1c-0.05,0.12-0.17,0.19-0.3,0.19l0,0C298.73,175.95,298.68,175.93,298.64,175.92
				L298.64,175.92z"/>
		</g>
		<g>
			<line class="st6" x1="303.94" y1="168.52" x2="300.71" y2="175.62"/>
			<path class="st6" d="M300.58,175.92c-0.16-0.08-0.23-0.27-0.16-0.43l0,0l3.23-7.1c0.07-0.16,0.27-0.23,0.43-0.16l0,0
				c0.16,0.07,0.23,0.27,0.16,0.43l0,0l-3.23,7.1c-0.06,0.12-0.17,0.19-0.29,0.19l0,0C300.67,175.95,300.62,175.93,300.58,175.92
				L300.58,175.92z"/>
		</g>
		<g>
			<line class="st6" x1="305.88" y1="168.52" x2="302.65" y2="175.62"/>
			<path class="st6" d="M302.51,175.92c-0.16-0.08-0.23-0.27-0.16-0.43l0,0l3.23-7.1c0.08-0.16,0.26-0.23,0.43-0.16l0,0
				c0.16,0.07,0.23,0.27,0.16,0.43l0,0l-3.23,7.1c-0.05,0.12-0.17,0.19-0.3,0.19l0,0C302.6,175.95,302.56,175.93,302.51,175.92
				L302.51,175.92z"/>
		</g>
		<g>
			<line class="st6" x1="307.81" y1="168.52" x2="304.58" y2="175.62"/>
			<path class="st6" d="M304.45,175.92c-0.16-0.08-0.24-0.27-0.16-0.43l0,0l3.23-7.1c0.07-0.16,0.26-0.23,0.43-0.16l0,0
				c0.16,0.07,0.23,0.27,0.16,0.43l0,0l-3.23,7.1c-0.05,0.12-0.17,0.19-0.3,0.19l0,0C304.54,175.95,304.49,175.93,304.45,175.92
				L304.45,175.92z"/>
		</g>
		<g>
			<line class="st6" x1="309.8" y1="168.52" x2="306.58" y2="175.62"/>
			<path class="st6" d="M306.44,175.92c-0.16-0.08-0.23-0.27-0.16-0.43l0,0l3.23-7.1c0.07-0.16,0.26-0.23,0.42-0.16l0,0
				c0.16,0.07,0.24,0.27,0.16,0.43l0,0l-3.23,7.1c-0.05,0.12-0.17,0.19-0.29,0.19l0,0C306.53,175.95,306.48,175.93,306.44,175.92
				L306.44,175.92z"/>
		</g>
		<g>
			<line class="st6" x1="311.74" y1="168.52" x2="308.51" y2="175.62"/>
			<path class="st6" d="M308.38,175.92c-0.17-0.08-0.23-0.27-0.16-0.43l0,0l3.23-7.1c0.07-0.16,0.27-0.23,0.43-0.16l0,0
				c0.16,0.07,0.23,0.27,0.16,0.43l0,0l-3.23,7.1c-0.05,0.12-0.17,0.19-0.29,0.19l0,0C308.46,175.95,308.42,175.93,308.38,175.92
				L308.38,175.92z"/>
		</g>
		<g>
			<line class="st6" x1="313.68" y1="168.52" x2="310.45" y2="175.62"/>
			<path class="st6" d="M310.31,175.92c-0.16-0.08-0.23-0.27-0.16-0.43l0,0l3.23-7.1c0.07-0.16,0.26-0.23,0.43-0.16l0,0
				c0.16,0.07,0.23,0.27,0.16,0.43l0,0l-3.23,7.1c-0.05,0.12-0.17,0.19-0.3,0.19l0,0C310.4,175.95,310.36,175.93,310.31,175.92
				L310.31,175.92z"/>
		</g>
		<g>
			<line class="st6" x1="315.61" y1="168.52" x2="312.38" y2="175.62"/>
			<path class="st6" d="M312.25,175.92c-0.16-0.08-0.24-0.27-0.16-0.43l0,0l3.23-7.1c0.07-0.16,0.26-0.23,0.43-0.16l0,0
				c0.16,0.07,0.23,0.27,0.16,0.43l0,0l-3.23,7.1c-0.05,0.12-0.18,0.19-0.3,0.19l0,0C312.34,175.95,312.29,175.93,312.25,175.92
				L312.25,175.92z"/>
		</g>
		<g>
			<line class="st6" x1="317.55" y1="168.52" x2="314.32" y2="175.62"/>
			<path class="st6" d="M314.19,175.92c-0.17-0.08-0.23-0.27-0.17-0.43l0,0l3.23-7.1c0.08-0.16,0.27-0.23,0.43-0.16l0,0
				c0.16,0.07,0.24,0.27,0.16,0.43l0,0l-3.23,7.1c-0.06,0.12-0.17,0.19-0.29,0.19l0,0C314.27,175.95,314.23,175.93,314.19,175.92
				L314.19,175.92z"/>
		</g>
		<g>
			<line class="st6" x1="319.48" y1="168.52" x2="316.26" y2="175.62"/>
			<path class="st6" d="M316.12,175.92c-0.16-0.08-0.23-0.27-0.16-0.43l0,0l3.23-7.1c0.07-0.16,0.26-0.23,0.42-0.16l0,0
				c0.17,0.07,0.24,0.27,0.16,0.43l0,0l-3.23,7.1c-0.05,0.12-0.17,0.19-0.29,0.19l0,0C316.21,175.95,316.16,175.93,316.12,175.92
				L316.12,175.92z"/>
		</g>
		<g>
			<line class="st6" x1="321.42" y1="168.52" x2="318.19" y2="175.62"/>
			<path class="st6" d="M318.06,175.92c-0.17-0.08-0.23-0.27-0.16-0.43l0,0l3.23-7.1c0.07-0.16,0.26-0.23,0.43-0.16l0,0
				c0.16,0.07,0.24,0.27,0.16,0.43l0,0l-3.23,7.1c-0.06,0.12-0.17,0.19-0.3,0.19l0,0C318.15,175.95,318.1,175.93,318.06,175.92
				L318.06,175.92z"/>
		</g>
		<g>
			<line class="st6" x1="323.36" y1="168.52" x2="320.13" y2="175.62"/>
			<path class="st6" d="M319.99,175.92c-0.16-0.08-0.23-0.27-0.16-0.43l0,0l3.23-7.1c0.07-0.16,0.26-0.23,0.42-0.16l0,0
				c0.16,0.07,0.23,0.27,0.16,0.43l0,0l-3.23,7.1c-0.06,0.12-0.17,0.19-0.3,0.19l0,0C320.08,175.95,320.04,175.93,319.99,175.92
				L319.99,175.92z"/>
		</g>
		<g>
			<line class="st6" x1="325.29" y1="168.52" x2="322.07" y2="175.62"/>
			<path class="st6" d="M321.93,175.92c-0.16-0.08-0.23-0.27-0.16-0.43l0,0l3.23-7.1c0.07-0.16,0.27-0.23,0.43-0.16l0,0
				c0.16,0.07,0.23,0.27,0.16,0.43l0,0l-3.23,7.1c-0.05,0.12-0.17,0.19-0.3,0.19l0,0C322.02,175.95,321.97,175.93,321.93,175.92
				L321.93,175.92z"/>
		</g>
	</g>
</g>
</svg>
